<?xml version="1.0" encoding="UTF-8"?> <svg xmlns="http://www.w3.org/2000/svg" id="Layer_2" data-name="Layer 2" viewBox="0 0 91.15 97.22"><defs><style> .cls-1 { fill: #010101; } .cls-2 { fill: #fff; } .cls-3 { fill: #a61d31; } .cls-4 { fill: none; stroke: #010101; stroke-width: 3px; } </style></defs><g id="Layer_1-2" data-name="Layer 1"><g><polygon class="cls-2" points="29.62 95.98 1.6 90.11 1.6 23.2 29.62 28.21 29.62 95.98"></polygon><polygon class="cls-2" points="29.43 95.98 57.45 90.11 57.45 23.2 29.43 28.21 29.43 95.98"></polygon><polygon class="cls-2" points="85.26 95.98 57.24 90.11 57.24 23.2 85.26 28.21 85.26 95.98"></polygon><circle class="cls-3" cx="15.36" cy="82.05" r="4.36"></circle><circle class="cls-3" cx="71.1" cy="37.54" r="4.36"></circle><g><path class="cls-1" d="m85.45,26.39l-27.81-4.92c-.2-.03-.41-.03-.6,0l-27.51,4.86L2.03,21.47c-.5-.09-1.02.05-1.41.38-.39.33-.62.81-.62,1.33v67.39c0,.84.6,1.56,1.43,1.7l27.81,4.92c.2.03.4.03.6,0l27.51-4.86,27.51,4.86c.1.02.2.03.3.03.4,0,.8-.14,1.11-.41.39-.33.62-.81.62-1.33V28.09c0-.84-.6-1.56-1.43-1.7h0Zm-57.65,57.39l-7.56-1.96c-.12-2.59-2.27-4.65-4.88-4.65s-4.89,2.19-4.89,4.89,2.19,4.89,4.89,4.89c1.54,0,2.91-.71,3.81-1.83l8.64,2.24v6.07l-24.35-4.31V25.24l24.35,4.31v54.23Zm-11.02-1.73c0,.79-.64,1.43-1.43,1.43s-1.43-.64-1.43-1.43.64-1.43,1.43-1.43,1.43.64,1.43,1.43Zm38.83,7.07l-24.35,4.31v-5.99l24.35-4.08v5.77h0Zm0-31.32l-5.91,1.03c-3.19.34-5.77-.29-7.48-1.82-1.64-1.47-2.51-3.78-2.51-6.68,0-5.98,3.87-10.63,10.1-12.14l2.34-.33c.95-.13,1.6-1.01,1.47-1.96s-1.01-1.6-1.96-1.47l-2.42.35c-.05,0-.1.02-.16.03-3.89.93-7.15,2.89-9.42,5.69-2.24,2.75-3.42,6.15-3.42,9.84,0,3.91,1.27,7.11,3.66,9.26,2.47,2.21,6,3.14,10.22,2.68.04,0,.07,0,.11-.02l5.37-.93v18.52l-24.35,4.08V29.54l24.35-4.31v32.56h0Zm3.46,3.53h.04c.11.03.23.04.35.04,5.76,0,10.23,6.44,10.23,11.98v.09c0,2.43-.83,4.01-2.6,4.98-1.63.89-4.1,1.32-7.56,1.33l-.46-.04v-18.39h0Zm24.35,32.09l-24.35-4.31v-5.93l.25.02s.09,0,.14,0c4.15,0,7.1-.56,9.29-1.76,2.92-1.6,4.4-4.3,4.4-8.01v-.09c0-7.23-5.76-15.31-13.51-15.44l-.57-.12V25.24l24.35,4.31v63.88Z"></path><path class="cls-1" d="m62.63,37.54l3.13.52c.4,2.3,2.41,4.05,4.82,4.05,2.7,0,4.89-2.19,4.89-4.89s-2.19-4.89-4.89-4.89c-1.76,0-3.3.93-4.16,2.33l-3.21-.53c-.95-.16-1.83.48-1.99,1.42s.48,1.83,1.42,1.99h0Zm7.94-1.75c.79,0,1.43.64,1.43,1.43s-.64,1.43-1.43,1.43-1.43-.64-1.43-1.43.64-1.43,1.43-1.43Z"></path></g><polygon class="cls-3" points="71.25 15.42 87.46 10.77 71.25 3.32 71.25 15.42"></polygon><path class="cls-4" d="m89.47,10.94c1.68-.5-8.83,2.63-18.17,5.27-.11.03,0-.11,0,0v12.07c0,.08-.07,4.58-.15,4.58h-.46c-.08,0-.11-4.5-.11-4.58l.2-26.78c0-.11-.09,2.06,0,2.09,1.76.66,19.72,6.93,18.69,7.35"></path></g></g></svg> 