<?xml version="1.0" encoding="UTF-8"?> <svg xmlns="http://www.w3.org/2000/svg" id="Layer_2" data-name="Layer 2" viewBox="0 0 92.19 86.88"><defs><style> .cls-1 { fill: #010101; } .cls-2 { fill: #fff; } .cls-3 { fill: #a61d31; } </style></defs><g id="Layer_1-2" data-name="Layer 1"><g id="SVGRepo_iconCarrier" data-name="SVGRepo iconCarrier"><g><path class="cls-2" d="m25.46,41.89h-6.86c-3.58,0-6.48,2.9-6.48,6.48v17.78h15.22v18.65h6.61v-25.64h5.88v-6.65h-13.85v-10.63h-13.85"></path><path class="cls-2" d="m66.93,41.89h6.86c3.58,0,6.48,2.9,6.48,6.48v17.78h-15.22s0,18.65,0,18.65h-6.61v-25.64s-5.88,0-5.88,0v-6.65h13.85s0-10.63,0-10.63h13.85"></path><circle class="cls-2" cx="21.42" cy="27.93" r="7.81"></circle><circle class="cls-2" cx="71.07" cy="27.93" r="7.81"></circle><path class="cls-2" d="m34.7,1.68h13.83c3.02,0,5.47,2.45,5.47,5.47v2.2c0,2.08-1.69,3.76-3.76,3.76h-17.24c-2.08,0-3.76-1.69-3.76-3.76v-2.2c0-3.02,2.45-5.47,5.47-5.47Z"></path><polygon class="cls-2" points="33.83 12.41 34.24 17.56 40.56 12.06 33.83 12.41"></polygon><path class="cls-2" d="m45.65,34.13h8.4c3.02,0,5.47,2.45,5.47,5.47v2.2c0,2.08-1.69,3.76-3.76,3.76h-11.81c-2.08,0-3.76-1.69-3.76-3.76v-2.2c0-3.02,2.45-5.47,5.47-5.47Z"></path><path class="cls-1" d="m21.42,37.23c5.13,0,9.31-4.17,9.31-9.31s-4.17-9.31-9.31-9.31-9.31,4.17-9.31,9.31,4.17,9.31,9.31,9.31Zm0-15.52c3.42,0,6.21,2.78,6.21,6.21s-2.78,6.21-6.21,6.21-6.21-2.78-6.21-6.21,2.78-6.21,6.21-6.21h0Z"></path><path class="cls-1" d="m71.07,37.23c5.13,0,9.31-4.17,9.31-9.31s-4.17-9.31-9.31-9.31-9.31,4.17-9.31,9.31,4.17,9.31,9.31,9.31Zm0-15.52c3.42,0,6.21,2.78,6.21,6.21s-2.78,6.21-6.21,6.21-6.21-2.78-6.21-6.21,2.78-6.21,6.21-6.21h0Z"></path><path class="cls-3" d="m4.4,66.16h4.4v20.72h-2.44c-1.09,0-1.97-.88-1.97-1.97v-18.76h0Z"></path><path class="cls-3" d="m1.97,40.34h2.44v20.72H0v-18.76C0,41.22.88,40.34,1.97,40.34Z"></path><path class="cls-3" d="m0,57.5h4.4l1.46,8.01,7.41.65v4.4h-3.95c-5.15,0-9.33-4.17-9.33-9.33v-3.73Z"></path><path class="cls-3" d="m16.73,58h2.44v20.72h-4.4v-18.76c0-1.09.88-1.97,1.97-1.97Z" transform="translate(-51.39 85.33) rotate(-90)"></path><path class="cls-3" d="m85.35,66.16h2.44v20.72h-4.4v-18.76c0-1.09.88-1.97,1.97-1.97Z" transform="translate(171.18 153.03) rotate(-180)"></path><path class="cls-3" d="m87.79,40.34h4.4v20.72h-2.44c-1.09,0-1.97-.88-1.97-1.97v-18.76h0Z" transform="translate(179.98 101.4) rotate(180)"></path><path class="cls-3" d="m92.19,57.5h-4.4s-1.46,8.01-1.46,8.01l-7.41.65v4.4s3.95,0,3.95,0c5.15,0,9.33-4.17,9.33-9.33v-3.73Z"></path><path class="cls-3" d="m73.02,58h4.4v20.72h-2.44c-1.09,0-1.97-.88-1.97-1.97v-18.76h0Z" transform="translate(6.87 143.58) rotate(-90)"></path><path class="cls-1" d="m86.58,42.05v18.46c0,2.57-2.09,4.65-4.65,4.65v-17.07c0-4.28-3.47-7.76-7.76-7.76h-7.76c-.86,0-1.55.7-1.55,1.55v9.31h-12.41c-.86,0-1.55.7-1.55,1.55v4.65h-9.31v-4.65c0-.86-.7-1.55-1.55-1.55h-12.41v-9.31c0-.86-.7-1.55-1.55-1.55h-7.76c-4.28,0-7.76,3.47-7.76,7.76v17.07c-2.57,0-4.65-2.09-4.65-4.65v-18.62c0-.86-.69-1.55-1.55-1.55h0c-.86,0-1.55.69-1.55,1.55v18.62c0,3.17,1.92,5.9,4.65,7.1v17.73c0,.86.7,1.55,1.55,1.55h0c.86,0,1.55-.7,1.55-1.55v-17.07h15.52v17.07c0,.86.7,1.55,1.55,1.55h6.11c.91,0,1.65-.74,1.65-1.65v-24.73h21.72v24.66c0,.95.77,1.71,1.71,1.71h6.04c.86,0,1.55-.7,1.55-1.55v-17.07h15.52v17.07c0,.86.7,1.55,1.55,1.55h0c.86,0,1.55-.7,1.55-1.55v-17.73c2.74-1.2,4.65-3.93,4.65-7.1v-18.62c0-.85-.69-1.55-1.55-1.55h-.04c-.84.02-1.51.7-1.51,1.54v.18h0Zm-52.75,15.35h-12.41v-7.76c0-.86-.7-1.55-1.55-1.55h0c-.86,0-1.55.7-1.55,1.55v9.31c0,.86.7,1.55,1.55,1.55h10.86c.85,0,1.55.7,1.55,1.55v21.72h-3.1v-17.07c0-.86-.7-1.55-1.55-1.55h-13.96v-17.07c0-2.57,2.08-4.65,4.65-4.65h6.21v9.31c0,.86.7,1.55,1.55,1.55h12.41v3.1h-4.66Zm31.03,7.76c-.86,0-1.55.7-1.55,1.55v17.07h-3.1v-21.72c0-.85.7-1.55,1.55-1.55h10.86c.86,0,1.55-.7,1.55-1.55v-9.31c0-.86-.7-1.55-1.55-1.55h0c-.86,0-1.55.7-1.55,1.55v7.76h-17.07v-3.1h12.41c.86,0,1.55-.7,1.55-1.55v-9.31h6.21c2.57,0,4.65,2.08,4.65,4.65v17.07h-13.97Z"></path><path class="cls-1" d="m32.28,15.51v4.65c0,.67.43,1.26,1.06,1.47.16.05.33.08.49.08.48,0,.94-.22,1.24-.62l4.19-5.59h11.64c2.57,0,4.65-2.09,4.65-4.65v-6.21c0-2.57-2.09-4.65-4.65-4.65h-18.62c-2.57,0-4.65,2.09-4.65,4.65v6.21c0,2.57,2.09,4.65,4.65,4.65h0Zm-1.55-10.86c0-.85.7-1.55,1.55-1.55h18.62c.85,0,1.55.7,1.55,1.55v6.21c0,.85-.7,1.55-1.55,1.55h-12.41c-.49,0-.95.23-1.24.62l-1.86,2.48v-1.55c0-.86-.7-1.55-1.55-1.55h-1.55c-.85,0-1.55-.7-1.55-1.55v-6.21h0Z"></path><rect class="cls-1" x="33.83" y="6.2" width="15.52" height="3.1" rx="1.55" ry="1.55"></rect><rect class="cls-1" x="44.69" y="38.79" width="9.31" height="3.1" rx="1.55" ry="1.55"></rect><path class="cls-1" d="m43.14,32.58c-2.57,0-4.65,2.09-4.65,4.65v6.21c0,2.57,2.09,4.65,4.65,4.65h12.41c2.57,0,4.65-2.09,4.65-4.65v-1.08l2.84-4.26c.32-.48.35-1.09.08-1.59-.27-.51-.8-.82-1.37-.82h-1.82c-.64-1.81-2.37-3.1-4.39-3.1h-12.41Zm13.96,4.66c0,.86.7,1.55,1.55,1.55h.2l-1.49,2.24c-.17.25-.26.55-.26.86v1.55c0,.85-.7,1.55-1.55,1.55h-12.41c-.85,0-1.55-.7-1.55-1.55v-6.21c0-.85.7-1.55,1.55-1.55h12.41c.85,0,1.55.7,1.55,1.55h0Z"></path></g></g></g></svg> 