<?xml version="1.0" encoding="UTF-8"?> <svg xmlns="http://www.w3.org/2000/svg" id="Layer_2" data-name="Layer 2" viewBox="0 0 85.28 73.48"><defs><style> .cls-1 { fill: #010101; } .cls-2 { fill: #fff; } .cls-3 { fill: #a61d31; } </style></defs><g id="Layer_1-2" data-name="Layer 1"><g><rect class="cls-2" x="6.35" y="1.07" width="72.12" height="52.92"></rect><path class="cls-2" d="m8.7,6.54h68.47c3.87,0,7.01,3.14,7.01,7.01v44.14c0,3.82-3.1,6.91-6.91,6.91H8.6c-3.82,0-6.91-3.1-6.91-6.91V13.56c0-3.87,3.14-7.01,7.01-7.01Z"></path><circle class="cls-2" cx="42.64" cy="65.12" r="4.95"></circle><polygon class="cls-3" points="64.11 53.98 64.11 71.36 68.72 70.07 72.58 72.1 73.24 53.98 64.11 53.98"></polygon><g id="SVGRepo_iconCarrier" data-name="SVGRepo iconCarrier"><path class="cls-1" d="m79.83,5.58V1.36c0-.75-.61-1.36-1.36-1.36h-30.39c-2.22,0-4.2,1.07-5.44,2.73-1.24-1.65-3.22-2.73-5.44-2.73H6.8c-.75,0-1.36.61-1.36,1.36v4.22c-3.1.63-5.44,3.38-5.44,6.67v47.17c0,3.75,3.05,6.8,6.8,6.8h29.17c.63,3.1,3.38,5.44,6.67,5.44s6.04-2.34,6.67-5.44h9.67c.75,0,1.36-.61,1.36-1.36s-.61-1.36-1.36-1.36h-10.89c-.75,0-1.36.61-1.36,1.36,0,2.25-1.83,4.08-4.08,4.08s-4.08-1.83-4.08-4.08c0-.75-.61-1.36-1.36-1.36H6.8c-2.25,0-4.08-1.83-4.08-4.08V12.25c0-1.77,1.14-3.29,2.72-3.85v45.58c0,.75.61,1.36,1.36,1.36h30.39c2.25,0,4.08,1.83,4.08,4.08-1.14-.85-2.55-1.36-4.08-1.36H6.8c-.75,0-1.36.61-1.36,1.36s.61,1.36,1.36,1.36h30.39c2.25,0,4.08,1.83,4.08,4.08,0,.75.61,1.36,1.36,1.36s1.36-.61,1.36-1.36c0-2.25,1.83-4.08,4.08-4.08h10.89c.75,0,1.36-.61,1.36-1.36s-.61-1.36-1.36-1.36h-10.89c-1.53,0-2.94.51-4.08,1.36,0-2.25,1.83-4.09,4.08-4.09h14.97v16.78c0,.46.23.88.61,1.13.38.25.86.3,1.28.12l3.78-1.59,3.78,1.59c.17.07.35.11.53.11.26,0,.53-.08.75-.23.38-.25.61-.68.61-1.13v-5.9h4.08c3.75,0,6.8-3.05,6.8-6.8V12.25c0-3.29-2.34-6.03-5.44-6.67Zm-38.56,48.4c-1.14-.86-2.55-1.36-4.08-1.36H8.16V2.72h29.03c2.25,0,4.08,1.83,4.08,4.08v47.18Zm30.39,16.09l-2.42-1.02c-.34-.14-.72-.14-1.06,0l-2.42,1.02v-14.73h5.89v14.73Zm-23.59-17.46c-1.53,0-2.94.51-4.08,1.36V6.8c0-2.25,1.83-4.08,4.08-4.08h29.03v49.9h-29.03Zm34.47,6.8c0,2.25-1.83,4.08-4.08,4.08h-4.08v-2.72h4.08c.75,0,1.36-.61,1.36-1.36s-.61-1.36-1.36-1.36h-4.08v-2.72h4.08c.75,0,1.36-.61,1.36-1.36V8.4c1.58.56,2.72,2.07,2.72,3.85v47.17h0Z"></path><path class="cls-1" d="m35.38,41.73H14.06c-.75,0-1.36.61-1.36,1.36s.61,1.36,1.36,1.36h21.32c.75,0,1.36-.61,1.36-1.36s-.61-1.36-1.36-1.36Z"></path><path class="cls-1" d="m35.38,34.02H14.06c-.75,0-1.36.61-1.36,1.36s.61,1.36,1.36,1.36h21.32c.75,0,1.36-.61,1.36-1.36s-.61-1.36-1.36-1.36Z"></path><path class="cls-1" d="m35.38,26.31H14.06c-.75,0-1.36.61-1.36,1.36s.61,1.36,1.36,1.36h21.32c.75,0,1.36-.61,1.36-1.36s-.61-1.36-1.36-1.36Z"></path><path class="cls-1" d="m35.38,18.6H14.06c-.75,0-1.36.61-1.36,1.36s.61,1.36,1.36,1.36h21.32c.75,0,1.36-.61,1.36-1.36s-.61-1.36-1.36-1.36Z"></path><path class="cls-1" d="m35.38,10.89H14.06c-.75,0-1.36.61-1.36,1.36s.61,1.36,1.36,1.36h21.32c.75,0,1.36-.61,1.36-1.36s-.61-1.36-1.36-1.36Z"></path><path class="cls-1" d="m71.22,41.73h-21.32c-.75,0-1.36.61-1.36,1.36s.61,1.36,1.36,1.36h21.32c.75,0,1.36-.61,1.36-1.36,0-.75-.61-1.36-1.36-1.36Z"></path><path class="cls-1" d="m71.22,22.45c.75,0,1.36-.61,1.36-1.36v-8.85c0-.75-.61-1.36-1.36-1.36h-21.32c-.75,0-1.36.61-1.36,1.36v23.13c0,.75.61,1.36,1.36,1.36h21.32c.75,0,1.36-.61,1.36-1.36v-8.85c0-.75-.61-1.36-1.36-1.36s-1.36.61-1.36,1.36v7.48h-18.6V13.61h18.6v7.48c0,.75.61,1.36,1.36,1.36Z"></path></g></g></g></svg> 