<?xml version="1.0" encoding="UTF-8"?> <svg xmlns="http://www.w3.org/2000/svg" id="Layer_2" data-name="Layer 2" viewBox="0 0 85.35 88.74"><defs><style> .cls-1 { fill: #010101; } .cls-2 { fill: #fff; } .cls-3 { fill: #a61d31; } </style></defs><g id="Layer_1-2" data-name="Layer 1"><g id="SVGRepo_iconCarrier" data-name="SVGRepo iconCarrier"><g id="co-founder-business-entrepneur-startup"><circle class="cls-2" cx="42.74" cy="46.89" r="35.39"></circle><path class="cls-1" d="m48.12,11.31h0c.75,0,1.36.61,1.36,1.36h0c0,.75-.61,1.36-1.36,1.36h0c-.75,0-1.36-.61-1.36-1.36h0c0-.75.61-1.36,1.36-1.36Z"></path><path class="cls-1" d="m18.12,72.68h0c.53-.53,1.4-.53,1.93,0l.8.8c.53.53.53,1.4,0,1.93h0c-.53.53-1.4.53-1.93,0l-.8-.8c-.53-.53-.53-1.4,0-1.93Z"></path><rect class="cls-3" x="32.16" width="21.82" height="23.63"></rect><rect class="cls-3" x="6.41" y="57.97" width="21.82" height="23.63" transform="translate(54.42 8.19) rotate(45)"></rect><rect class="cls-3" x="56.05" y="59.68" width="23.63" height="23.63" transform="translate(-30.68 68.93) rotate(-45)"></rect><path class="cls-1" d="m72.27,56.72l-4.09-4.09c-.26-.26-.64-.42-.99-.4-.37,0-.72.17-.98.44l-.15.37-1.18-1.38v-3.53c0-.36-.14-.71-.4-.96l-7.78-7.78v-8.98c0-.36-.14-.71-.4-.96l-2.33-2.33v-2.16s1.36-.61,1.36-1.36V1.36c0-.75-.61-1.36-1.36-1.36h0c-.75,0-1.36.61-1.36,1.36v15h-19.09V1.36c0-.75-.61-1.36-1.36-1.36h0c-.75,0-1.36.61-1.36,1.36v22.22c0,.75,0,1.36,1.36,1.36v2.16l-5.06,5.06c-.26.26-.4.6-.4.96v3.53l-6.42,6.42c-.26.26-.4.6-.4.96v7.62l-1.56,1.36-.5-.4c-.53-.53-1.45-.53-1.98,0l-4.12,4.09L.4,68.03c-.53.53-.53,1.39,0,1.92H.4c.53.53,1.39.53,1.93,0l10.34-10.35,14.43,14.44-10.35,10.35c-.53.53-.53,1.39,0,1.92h0c.53.54,1.39.54,1.92,0l11.31-11.31,4.09-4.09c.53-.53.53-1.4,0-1.93l-.4-.4,1.44-1.44c.24.04.48.07.73.07.54,0,1.05-.11,1.52-.3.47,1.74,2.05,3.03,3.93,3.03,1.45,0,2.72-.97,3.45-2.11.6.34,1.27.35,2.01.35h2.16l1.35,1.55-.42.55c-.5.54-.48,1.42.04,1.94l4.09,4.12,11.98,11.99c.53.53,1.39.53,1.92,0h0c.53-.53.53-1.39,0-1.93l-11.05-11.05,4.84-5.24,9.68-10.48,11.67,11.67c.53.53,1.39.53,1.92,0h0c.53-.54.53-1.4,0-1.93l-12.68-12.68h0Zm-19.66-37.62v2.73h-19.09v-2.73h19.09Zm-23.58,53.02l-14.44-14.44,2.16-2.16.4.4,13.64,13.64.4.4-2.16,2.16h0Zm-8.98-17.16l1.96-1.76c.26-.26.6-.6.6-.96v-7.62l4.09-4.09v2.16c0,.36.14.71.4.96l5.06,5.06v14.44c0,.99.16,1.88.75,2.58l-1.04.94-11.81-11.71h0Zm25.75,9.51v-19.46c0-.75-.61-1.36-1.36-1.36h0c-.75,0-1.36.61-1.36,1.36v20.82c0,.67-.47,1.27-1.13,1.38-.85.14-1.6-.52-1.6-1.34v-20.86c0-.75-.61-1.36-1.36-1.36h0c-.75,0-1.36.61-1.36,1.36v18.09c0,.67-.47,1.27-1.13,1.38-.85.14-1.6-.52-1.6-1.34v-20.86c0-.75-.61-1.36-1.36-1.36h0c-.75,0-1.36.61-1.36,1.36v2.56l-2.73-2.73v-8.42l5.06-5.06c.26-.26.4-.6.4-.96v-3.13h16.37v3.13c0,.36.14.71.4.96l2.33,2.33v26.67c0,.67-.47,1.27-1.13,1.38-.85.14-1.6-.52-1.6-1.34v-12.67c0-.75-.61-1.36-1.36-1.36h0c-.75,0-1.36.61-1.36,1.36v19.49c0,.83-.74,1.49-1.6,1.34-.66-.11-1.13-.71-1.13-1.38h0Zm4.66,1.8s.19,0,.19,0c.26-.53.61-1.12.61-1.76v-2.98c0,.15.88.25,1.36.25,2.26,0,4.09-1.84,4.09-4.09v-14.44l5.46,5.46v3.53c0,.36-.06.71.2.96l1.71,1.81-6.01,6.55-5.92,6.38-1.69-1.67h0Zm2.44,4.85c.12-.07.24-.14.33-.24l6.83-7.51,7.2-7.81,2.16,2.16-4.84,5.24-9.68,10.48-2.16-2.16.15-.17h0Z"></path><path class="cls-1" d="m69.94,66.66l.8-.8c.53-.53,1.4-.53,1.93,0h0c.53.53.53,1.4,0,1.93l-.8.8c-.53.53-1.4.53-1.93,0h0c-.53-.53-.53-1.4,0-1.93Z"></path><path class="cls-1" d="m42.67,80.86c-4.11,0-8.11-.72-11.91-2.14-.69-.26-1.46.07-1.74.75h0c-.3.71.05,1.53.78,1.8,4.11,1.54,8.44,2.31,12.88,2.31,3.39,0,6.75-.46,9.98-1.37.74-.21,1.16-1,.92-1.73h0c-.22-.7-.96-1.09-1.67-.89-2.99.84-6.09,1.27-9.24,1.27h0Z"></path><path class="cls-1" d="m76.76,46.77c0,2.75-.33,5.48-.97,8.13-.17.71.24,1.43.95,1.63h0c.74.21,1.52-.23,1.7-.98.7-2.86,1.05-5.81,1.05-8.78,0-13.77-7.79-26.47-19.97-32.75-.69-.35-1.53-.06-1.86.64h0c-.31.66-.04,1.45.61,1.79,11.27,5.82,18.49,17.58,18.49,30.32h0Z"></path><path class="cls-1" d="m8.53,56.31c.71-.2,1.13-.92.96-1.63-.61-2.58-.92-5.23-.92-7.91,0-12.75,7.22-24.51,18.49-30.32.65-.34.92-1.13.61-1.79h0c-.33-.7-1.17-.99-1.86-.64C13.64,20.3,5.84,33,5.84,46.77c0,2.89.33,5.76,1,8.54.18.75.95,1.21,1.69,1h0Z"></path></g></g></g></svg> 